<svg width="198" height="74" viewBox="0 0 198 74" fill="none" xmlns="http://www.w3.org/2000/svg">
<path d="M0 41.8312L49.7609 0L112.616 8.55128L33.7663 74L0 41.8312Z" fill="#E5C471"/>
<path fill-rule="evenodd" clip-rule="evenodd" d="M184.144 29.787C191.763 29.6012 197.984 35.6862 197.984 43.2267L198 43.1958C198 44.3415 197.86 45.4099 197.55 46.4938H178.248C179.386 48.5896 181.524 50.0562 183.993 50.2246L178.134 55.1347C173.794 52.8196 170.872 48.1989 171.002 42.9016C171.126 35.8101 176.96 29.9728 184.144 29.787ZM184.517 36.2436C181.786 36.2436 179.443 37.7765 178.295 39.9907H190.739C189.528 37.761 187.247 36.2436 184.517 36.2436Z" fill="#172029"/>
<path fill-rule="evenodd" clip-rule="evenodd" d="M41.5531 29.787C49.1714 29.6012 55.3933 35.6862 55.3933 43.2267L55.4088 43.1958C55.4088 44.3415 55.2692 45.4099 54.9589 46.4938H35.657C36.7946 48.5896 38.9331 50.0562 41.4023 50.2246L35.5423 55.1347C31.2026 52.8196 28.2813 48.1989 28.411 42.9016C28.5352 35.8101 34.3692 29.9728 41.5531 29.787ZM41.9255 36.2436C39.1946 36.2436 36.8517 37.7765 35.7035 39.9907H48.1474C46.9371 37.761 44.6563 36.2436 41.9255 36.2436Z" fill="#172029"/>
<path d="M142.158 31.7534V29.787H148.644V56.8058H142.158V43.3041C142.158 39.4487 139.039 36.3365 135.176 36.3365C131.312 36.3365 128.194 39.4487 128.194 43.3041C128.194 47.063 131.143 50.1153 134.886 50.2659L129.02 55.181C124.679 52.9485 121.708 48.4306 121.708 43.2267C121.708 35.8101 127.744 29.787 135.176 29.787C137.705 29.787 140.125 30.5457 142.158 31.7534Z" fill="#172029"/>
<path d="M172.797 31.7964C170.837 30.4872 168.451 29.8025 165.866 29.8025L165.851 29.787C163.306 29.787 160.901 30.4838 158.869 31.7534V29.8489H152.383V56.7903H158.869V43.2887C158.869 39.4178 161.987 36.3211 165.851 36.3211C166.326 36.3211 166.788 36.3687 167.233 36.4592L172.797 31.7964Z" fill="#172029"/>
<path d="M18.7594 25.9926V56.7284H25.3071V20.5062L18.7594 25.9926Z" fill="#172029"/>
<path d="M68.0537 31.7534C70.0863 30.4838 72.4912 29.787 75.0359 29.787C82.468 29.787 88.5658 35.8101 88.5037 43.2267C88.5037 50.6434 82.468 56.6665 75.0359 56.6665V50.1943C78.8993 50.1943 82.0181 47.0821 82.0181 43.2267C82.0181 39.3713 78.8993 36.2591 75.0359 36.2591C71.1724 36.2591 68.0537 39.3558 68.0537 43.2267V60.6708L61.568 66.1052V29.787H68.0537V31.7534Z" fill="#172029"/>
<path d="M91.669 25.9461V56.7903H98.1547V43.2886C98.1547 39.4178 101.273 36.321 105.137 36.321C109 36.321 112.119 39.4332 112.119 43.2886V56.7903H118.605V43.2886C118.605 35.8101 112.569 29.787 105.137 29.787C102.592 29.787 100.187 30.4837 98.1547 31.7534V20.5117L91.669 25.9461Z" fill="#172029"/>
<path d="M81.0554 60.1761L78.4532 66.4986H77.6022L75 60.1761H75.7575C75.8407 60.1761 75.9075 60.1967 75.958 60.2378C76.0115 60.2788 76.0516 60.3317 76.0783 60.3963L77.8071 64.6935C77.8487 64.7991 77.8888 64.9151 77.9274 65.0413C77.969 65.1675 78.0061 65.2996 78.0388 65.4375C78.0685 65.2996 78.1012 65.1675 78.1368 65.0413C78.1725 64.9151 78.2111 64.7991 78.2527 64.6935L79.9771 60.3963C79.9979 60.3376 80.035 60.2862 80.0885 60.2422C80.1449 60.1981 80.2132 60.1761 80.2934 60.1761H81.0554Z" fill="#172029"/>
<path d="M82.9265 61.9549C83.2592 61.9549 83.5592 62.0092 83.8266 62.1178C84.0969 62.2234 84.3256 62.3775 84.5127 62.5801C84.7028 62.7797 84.8484 63.0218 84.9494 63.3065C85.0504 63.5883 85.1009 63.9053 85.1009 64.2576C85.1009 64.6098 85.0504 64.9283 84.9494 65.213C84.8484 65.4977 84.7028 65.7399 84.5127 65.9395C84.3256 66.1391 84.0969 66.2932 83.8266 66.4018C83.5592 66.5074 83.2592 66.5603 82.9265 66.5603C82.5908 66.5603 82.2878 66.5074 82.0175 66.4018C81.7502 66.2932 81.5214 66.1391 81.3313 65.9395C81.1412 65.7399 80.9942 65.4977 80.8902 65.213C80.7892 64.9283 80.7387 64.6098 80.7387 64.2576C80.7387 63.9053 80.7892 63.5883 80.8902 63.3065C80.9942 63.0218 81.1412 62.7797 81.3313 62.5801C81.5214 62.3775 81.7502 62.2234 82.0175 62.1178C82.2878 62.0092 82.5908 61.9549 82.9265 61.9549ZM82.9265 65.891C83.3542 65.891 83.6736 65.7487 83.8845 65.464C84.0954 65.1792 84.2008 64.7786 84.2008 64.262C84.2008 63.7454 84.0954 63.3447 83.8845 63.06C83.6736 62.7723 83.3542 62.6285 82.9265 62.6285C82.4928 62.6285 82.169 62.7723 81.9551 63.06C81.7442 63.3447 81.6388 63.7454 81.6388 64.262C81.6388 64.7786 81.7442 65.1792 81.9551 65.464C82.169 65.7487 82.4928 65.891 82.9265 65.891Z" fill="#172029"/>
<path d="M86.9798 62.0253V66.4986H86.1109V62.0253H86.9798ZM87.1446 60.6428C87.1446 60.7221 87.1283 60.7984 87.0956 60.8718C87.0629 60.9422 87.0184 61.0053 86.9619 61.0611C86.9085 61.1139 86.8446 61.1565 86.7703 61.1888C86.6961 61.2181 86.6188 61.2328 86.5386 61.2328C86.4584 61.2328 86.3827 61.2181 86.3114 61.1888C86.2401 61.1565 86.1762 61.1139 86.1198 61.0611C86.0663 61.0053 86.0233 60.9422 85.9906 60.8718C85.9609 60.7984 85.946 60.7221 85.946 60.6428C85.946 60.5606 85.9609 60.4843 85.9906 60.4139C86.0233 60.3405 86.0663 60.2774 86.1198 60.2245C86.1762 60.1688 86.2401 60.1262 86.3114 60.0969C86.3827 60.0646 86.4584 60.0484 86.5386 60.0484C86.6188 60.0484 86.6961 60.0646 86.7703 60.0969C86.8446 60.1262 86.9085 60.1688 86.9619 60.2245C87.0184 60.2774 87.0629 60.3405 87.0956 60.4139C87.1283 60.4843 87.1446 60.5606 87.1446 60.6428Z" fill="#172029"/>
<path d="M89.0576 62.8839C89.2032 62.5904 89.3784 62.3599 89.5834 62.1926C89.7883 62.0253 90.0349 61.9417 90.323 61.9417C90.4211 61.9417 90.5131 61.9534 90.5993 61.9769C90.6884 61.9974 90.7656 62.0297 90.831 62.0737L90.7731 62.721C90.7523 62.8002 90.7033 62.8398 90.626 62.8398C90.5844 62.8398 90.5221 62.8325 90.4389 62.8178C90.3557 62.8002 90.2666 62.7914 90.1715 62.7914C90.0319 62.7914 89.9086 62.812 89.8017 62.8531C89.6948 62.8912 89.5982 62.9499 89.5121 63.0292C89.4289 63.1055 89.3546 63.2009 89.2893 63.3154C89.2239 63.4269 89.163 63.5546 89.1066 63.6984V66.4986H88.2377V62.0253H88.7368C88.8318 62.0253 88.8957 62.0429 88.9284 62.0782C88.964 62.1104 88.9893 62.1691 89.0041 62.2543L89.0576 62.8839Z" fill="#172029"/>
<path d="M94.4326 65.3979C94.5752 65.5828 94.7282 65.712 94.8916 65.7854C95.0579 65.8587 95.2436 65.8954 95.4485 65.8954C95.8466 65.8954 96.154 65.7545 96.3709 65.4728C96.5907 65.188 96.7006 64.7742 96.7006 64.2312C96.7006 63.9464 96.6753 63.7043 96.6248 63.5047C96.5773 63.3021 96.506 63.1378 96.411 63.0116C96.3189 62.8824 96.2045 62.7885 96.0679 62.7298C95.9312 62.6681 95.7768 62.6373 95.6045 62.6373C95.352 62.6373 95.1322 62.6931 94.945 62.8046C94.7609 62.9162 94.5901 63.0747 94.4326 63.2801V65.3979ZM94.3881 62.6946C94.4831 62.583 94.5841 62.4817 94.6911 62.3908C94.801 62.2968 94.9183 62.2176 95.0431 62.153C95.1678 62.0855 95.3 62.0341 95.4396 61.9989C95.5822 61.9607 95.7337 61.9417 95.8941 61.9417C96.1525 61.9417 96.3857 61.9916 96.5937 62.0914C96.8046 62.1912 96.9843 62.3379 97.1328 62.5316C97.2813 62.7254 97.3957 62.9646 97.4759 63.2493C97.5591 63.534 97.6007 63.8613 97.6007 64.2312C97.6007 64.5628 97.5546 64.871 97.4625 65.1558C97.3734 65.4375 97.2442 65.6826 97.0749 65.891C96.9085 66.0994 96.7036 66.2638 96.46 66.3841C96.2194 66.5016 95.9476 66.5603 95.6446 66.5603C95.3743 66.5603 95.1426 66.5162 94.9495 66.4282C94.7564 66.3401 94.5841 66.2168 94.4326 66.0583V68H93.5637V62.0253H94.0851C94.2069 62.0253 94.2826 62.0826 94.3123 62.197L94.3881 62.6946Z" fill="#172029"/>
<path d="M99.4676 60V66.4986H98.5943V60H99.4676Z" fill="#172029"/>
<path d="M104.474 62.0253V66.4986H103.952C103.834 66.4986 103.756 66.4414 103.721 66.3269L103.658 65.8778C103.56 65.9806 103.458 66.0745 103.351 66.1596C103.244 66.2447 103.13 66.3181 103.008 66.3797C102.886 66.4385 102.757 66.4839 102.62 66.5162C102.483 66.5515 102.336 66.5691 102.179 66.5691C101.929 66.5691 101.71 66.528 101.52 66.4458C101.332 66.3636 101.175 66.2491 101.047 66.1024C100.92 65.9527 100.823 65.7736 100.758 65.5652C100.692 65.3568 100.66 65.1264 100.66 64.874V62.0253H101.533V64.874C101.533 65.1939 101.607 65.4434 101.756 65.6225C101.904 65.7986 102.131 65.8866 102.437 65.8866C102.66 65.8866 102.868 65.8353 103.061 65.7325C103.254 65.6269 103.436 65.483 103.605 65.301V62.0253H104.474Z" fill="#172029"/>
<path d="M108.355 62.7958C108.332 62.834 108.306 62.8619 108.28 62.8795C108.253 62.8941 108.219 62.9015 108.177 62.9015C108.13 62.9015 108.076 62.8853 108.017 62.8531C107.96 62.8208 107.891 62.7855 107.807 62.7474C107.727 62.7092 107.632 62.674 107.522 62.6417C107.412 62.6094 107.282 62.5933 107.13 62.5933C107.005 62.5933 106.891 62.6094 106.787 62.6417C106.686 62.6711 106.6 62.7136 106.529 62.7694C106.457 62.8222 106.402 62.8868 106.364 62.9631C106.325 63.0365 106.306 63.1158 106.306 63.2009C106.306 63.3124 106.339 63.4049 106.404 63.4783C106.472 63.5516 106.56 63.6147 106.667 63.6676C106.777 63.7204 106.9 63.7689 107.037 63.8129C107.176 63.854 107.317 63.898 107.46 63.945C107.605 63.9919 107.747 64.0462 107.883 64.1079C108.023 64.1666 108.146 64.2414 108.253 64.3324C108.363 64.4205 108.451 64.5276 108.516 64.6538C108.584 64.78 108.618 64.9341 108.618 65.1161C108.618 65.3245 108.58 65.5183 108.503 65.6973C108.428 65.8734 108.317 66.0261 108.168 66.1552C108.023 66.2844 107.842 66.3856 107.625 66.459C107.408 66.5324 107.16 66.5691 106.881 66.5691C106.569 66.5691 106.281 66.5177 106.016 66.415C105.752 66.3122 105.531 66.1816 105.352 66.0231L105.557 65.6929C105.581 65.6518 105.611 65.621 105.646 65.6004C105.682 65.577 105.73 65.5652 105.789 65.5652C105.845 65.5652 105.903 65.5858 105.963 65.6269C106.022 65.668 106.093 65.7134 106.177 65.7633C106.26 65.8103 106.361 65.8543 106.48 65.8954C106.598 65.9336 106.747 65.9527 106.925 65.9527C107.074 65.9527 107.203 65.9351 107.313 65.8998C107.423 65.8617 107.513 65.8118 107.585 65.7501C107.659 65.6856 107.714 65.6122 107.75 65.53C107.785 65.4478 107.803 65.3612 107.803 65.2702C107.803 65.1528 107.769 65.056 107.701 64.9796C107.635 64.9004 107.548 64.8329 107.438 64.7771C107.331 64.7213 107.207 64.6729 107.068 64.6318C106.928 64.5907 106.786 64.5467 106.64 64.4997C106.494 64.4528 106.352 64.3985 106.212 64.3368C106.073 64.2752 105.948 64.1974 105.838 64.1035C105.731 64.0095 105.643 63.8951 105.575 63.76C105.51 63.625 105.477 63.4606 105.477 63.2669C105.477 63.0937 105.513 62.9279 105.584 62.7694C105.658 62.6109 105.764 62.4715 105.9 62.3511C106.04 62.2308 106.211 62.1354 106.413 62.0649C106.618 61.9916 106.851 61.9549 107.112 61.9549C107.412 61.9549 107.683 62.0018 107.923 62.0958C108.167 62.1897 108.375 62.3188 108.547 62.4832L108.355 62.7958Z" fill="#172029"/>
<path d="M112.704 60V66.4986H111.831V60H112.704Z" fill="#172029"/>
<path d="M115.875 61.9549C116.207 61.9549 116.507 62.0092 116.775 62.1178C117.045 62.2234 117.274 62.3775 117.461 62.5801C117.651 62.7797 117.797 63.0218 117.898 63.3065C117.999 63.5883 118.049 63.9053 118.049 64.2576C118.049 64.6098 117.999 64.9283 117.898 65.213C117.797 65.4977 117.651 65.7399 117.461 65.9395C117.274 66.1391 117.045 66.2932 116.775 66.4018C116.507 66.5074 116.207 66.5603 115.875 66.5603C115.539 66.5603 115.236 66.5074 114.966 66.4018C114.698 66.2932 114.47 66.1391 114.279 65.9395C114.089 65.7399 113.942 65.4977 113.838 65.213C113.737 64.9283 113.687 64.6098 113.687 64.2576C113.687 63.9053 113.737 63.5883 113.838 63.3065C113.942 63.0218 114.089 62.7797 114.279 62.5801C114.47 62.3775 114.698 62.2234 114.966 62.1178C115.236 62.0092 115.539 61.9549 115.875 61.9549ZM115.875 65.891C116.302 65.891 116.622 65.7487 116.833 65.464C117.044 65.1792 117.149 64.7786 117.149 64.262C117.149 63.7454 117.044 63.3447 116.833 63.06C116.622 62.7723 116.302 62.6285 115.875 62.6285C115.441 62.6285 115.117 62.7723 114.903 63.06C114.692 63.3447 114.587 63.7454 114.587 64.262C114.587 64.7786 114.692 65.1792 114.903 65.464C115.117 65.7487 115.441 65.891 115.875 65.891Z" fill="#172029"/>
<path d="M119.928 62.0253V66.4986H119.059V62.0253H119.928ZM120.093 60.6428C120.093 60.7221 120.076 60.7984 120.044 60.8718C120.011 60.9422 119.967 61.0053 119.91 61.0611C119.857 61.1139 119.793 61.1565 119.718 61.1888C119.644 61.2181 119.567 61.2328 119.487 61.2328C119.407 61.2328 119.331 61.2181 119.26 61.1888C119.188 61.1565 119.124 61.1139 119.068 61.0611C119.014 61.0053 118.971 60.9422 118.939 60.8718C118.909 60.7984 118.894 60.7221 118.894 60.6428C118.894 60.5606 118.909 60.4843 118.939 60.4139C118.971 60.3405 119.014 60.2774 119.068 60.2245C119.124 60.1688 119.188 60.1262 119.26 60.0969C119.331 60.0646 119.407 60.0484 119.487 60.0484C119.567 60.0484 119.644 60.0646 119.718 60.0969C119.793 60.1262 119.857 60.1688 119.91 60.2245C119.967 60.2774 120.011 60.3405 120.044 60.4139C120.076 60.4843 120.093 60.5606 120.093 60.6428Z" fill="#172029"/>
<path d="M122.001 62.6461C122.099 62.5434 122.202 62.4495 122.309 62.3643C122.416 62.2792 122.529 62.2073 122.647 62.1486C122.769 62.087 122.898 62.04 123.035 62.0077C123.175 61.9725 123.323 61.9549 123.481 61.9549C123.73 61.9549 123.948 61.996 124.136 62.0782C124.326 62.1603 124.485 62.2763 124.612 62.426C124.74 62.5727 124.837 62.7503 124.902 62.9587C124.967 63.1671 125 63.3975 125 63.65V66.4986H124.127V63.65C124.127 63.33 124.052 63.082 123.904 62.9059C123.755 62.7268 123.528 62.6373 123.222 62.6373C122.999 62.6373 122.79 62.6901 122.594 62.7958C122.401 62.8986 122.221 63.0394 122.055 63.2185V66.4986H121.186V62.0253H121.707C121.829 62.0253 121.905 62.0826 121.934 62.197L122.001 62.6461Z" fill="#172029"/>
</svg>
